<?xml version="1.0" encoding="iso-8859-1"?>
<!-- Generator: Adobe Illustrator 19.0.0, SVG Export Plug-In . SVG Version: 6.00 Build 0)  -->
<svg version="1.1" id="Capa_1" xmlns="http://www.w3.org/2000/svg" xmlns:xlink="http://www.w3.org/1999/xlink" x="0px" y="0px"
	 viewBox="0 0 480.653 480.653" style="enable-background:new 0 0 480.653 480.653;" xml:space="preserve">
<path style="fill:#1185E0;" d="M341.923,0H138.691c-26.122,0-47.02,20.898-47.02,47.02v386.612c0,26.122,20.898,47.02,47.02,47.02
	h203.755c12.539,0,24.555-5.224,33.437-14.106c8.882-8.882,13.584-20.898,13.061-32.914V47.02C388.944,20.898,368.046,0,341.923,0z
	 M138.691,31.347h203.233c8.882,0,15.673,6.792,15.673,15.673v14.106h-234.58V47.02C123.017,38.139,129.809,31.347,138.691,31.347z
	 M357.597,92.473v271.151h-234.58V92.473H357.597z M353.417,444.604c-3.135,3.135-6.792,4.702-10.971,4.702H138.691
	c-8.882,0-15.673-6.792-15.673-15.673v-38.661h234.58v39.184C357.597,437.812,356.029,441.992,353.417,444.604z"/>
<path style="fill:#4DCFE0;" d="M253.629,437.29h-26.122c-8.882,0-15.673-6.792-15.673-15.673s6.792-15.673,15.673-15.673h26.122
	c8.882,0,15.673,6.792,15.673,15.673S262.511,437.29,253.629,437.29z"/>
<g>
</g>
<g>
</g>
<g>
</g>
<g>
</g>
<g>
</g>
<g>
</g>
<g>
</g>
<g>
</g>
<g>
</g>
<g>
</g>
<g>
</g>
<g>
</g>
<g>
</g>
<g>
</g>
<g>
</g>
</svg>
