<?xml version="1.0" encoding="iso-8859-1"?>
<!-- Generator: Adobe Illustrator 19.0.0, SVG Export Plug-In . SVG Version: 6.00 Build 0)  -->
<svg version="1.1" id="Capa_1" xmlns="http://www.w3.org/2000/svg" xmlns:xlink="http://www.w3.org/1999/xlink" x="0px" y="0px"
	 viewBox="0 0 409.094 409.094" style="enable-background:new 0 0 409.094 409.094;" xml:space="preserve">
<path style="fill:#1185E0;" d="M295.192,407.192c-2.612,0-5.224-0.522-7.314-1.567L140.547,327.78
	c-7.837-4.18-10.449-13.584-6.792-21.42c4.18-7.837,13.584-10.449,21.42-6.792l124.343,65.829V188.808
	c0-8.882,6.792-15.673,15.673-15.673s15.673,6.792,15.673,15.673v202.71c0,5.747-3.135,10.449-7.837,13.584
	C300.939,406.669,297.804,407.192,295.192,407.192z"/>
<path style="fill:#4DCFE0;" d="M15.682,403.535c-4.18,0-8.359-1.567-11.494-5.224c-5.747-6.269-5.747-16.196,1.045-21.943
	L382.963,26.849c6.269-5.747,16.196-5.747,21.943,1.045c5.747,6.269,5.747,16.196-1.045,21.943L26.131,399.355
	C23.518,401.967,19.339,403.535,15.682,403.535z"/>
<path style="fill:#1185E0;" d="M303.029,3.861c-4.702-2.612-10.971-2.612-15.673,0L114.947,104.694H19.861
	c-8.882,0-15.673,6.792-15.673,15.673v168.229c0,8.882,6.792,15.673,15.673,15.673h37.616c8.882,0,15.673-6.792,15.673-15.673
	s-6.792-15.673-15.673-15.673H35.535V136.041h67.918v94.041c0,8.882,6.792,15.673,15.673,15.673s15.673-6.792,15.673-15.673V129.249
	l144.718-84.637v17.241c0,8.882,6.792,15.673,15.673,15.673s15.673-6.792,15.673-15.673V17.445
	C310.865,11.698,307.731,6.473,303.029,3.861z"/>
<g>
</g>
<g>
</g>
<g>
</g>
<g>
</g>
<g>
</g>
<g>
</g>
<g>
</g>
<g>
</g>
<g>
</g>
<g>
</g>
<g>
</g>
<g>
</g>
<g>
</g>
<g>
</g>
<g>
</g>
</svg>
