<?xml version="1.0" encoding="iso-8859-1"?>
<!-- Generator: Adobe Illustrator 19.0.0, SVG Export Plug-In . SVG Version: 6.00 Build 0)  -->
<svg version="1.1" id="Capa_1" xmlns="http://www.w3.org/2000/svg" xmlns:xlink="http://www.w3.org/1999/xlink" x="0px" y="0px"
	 viewBox="0 0 480.653 480.653" style="enable-background:new 0 0 480.653 480.653;" xml:space="preserve">
<path style="fill:#1185E0;" d="M381.388,419.788H99.265c-23.51,0-41.796-18.286-41.796-41.796V220.735H15.673
	C6.792,220.735,0,213.943,0,205.061s6.792-15.673,15.673-15.673h57.469c8.882,0,15.673,6.792,15.673,15.673v172.931
	c0,5.747,4.702,10.449,10.449,10.449h282.122c5.747,0,10.449-4.702,10.449-10.449V205.061c0-8.882,6.792-15.673,15.673-15.673
	h57.469c8.882,0,15.673,6.792,15.673,15.673s-6.792,15.673-15.673,15.673h-41.796v157.257
	C423.184,401.502,404.898,419.788,381.388,419.788z"/>
<path style="fill:#4DCFE0;" d="M342.204,240.588c-5.747-6.269-15.673-6.792-21.943-1.045L256,299.102V76.539
	c0-8.882-6.792-15.673-15.673-15.673s-15.673,6.792-15.673,15.673v222.563l-64.261-59.559c-6.269-5.747-16.196-5.747-21.943,1.045
	c-5.747,6.269-5.747,16.196,1.045,21.943l90.384,84.114c0.522,0.522,0.522,0.522,1.045,0.522c0.522,0.522,0.522,0.522,1.045,1.045
	c0.522,0.522,1.045,0.522,1.567,0.522c0.522,0,1.045,0.522,1.045,0.522c0.522,0,1.045,0.522,1.567,0.522
	c0.522,0,0.522,0,1.045,0.522c1.045,0,2.09,0.522,3.135,0.522c1.045,0,2.09,0,3.135-0.522c0.522,0,0.522,0,1.045-0.522
	c0.522,0,1.045-0.522,1.567-0.522s1.045-0.522,1.045-0.522c0.522,0,1.045-0.522,1.567-0.522c0.522-0.522,1.045-0.522,1.045-1.045
	c0.522,0,0.522-0.522,1.045-0.522l90.384-84.114C347.951,256.784,347.951,246.857,342.204,240.588z"/>
<g>
</g>
<g>
</g>
<g>
</g>
<g>
</g>
<g>
</g>
<g>
</g>
<g>
</g>
<g>
</g>
<g>
</g>
<g>
</g>
<g>
</g>
<g>
</g>
<g>
</g>
<g>
</g>
<g>
</g>
</svg>
