<?xml version="1.0" encoding="iso-8859-1"?>
<!-- Generator: Adobe Illustrator 19.0.0, SVG Export Plug-In . SVG Version: 6.00 Build 0)  -->
<svg version="1.1" id="Capa_1" xmlns="http://www.w3.org/2000/svg" xmlns:xlink="http://www.w3.org/1999/xlink" x="0px" y="0px"
	 viewBox="0 0 419.004 419.004" style="enable-background:new 0 0 419.004 419.004;" xml:space="preserve">
<rect x="178.955" y="75.679" transform="matrix(-0.7071 -0.7071 0.7071 -0.7071 173.6373 520.5515)" style="fill:#4DCFE0;" width="31.347" height="297.271"/>
<path style="fill:#1185E0;" d="M414.24,90.906L328.036,4.702C324.902,1.567,321.244,0,317.065,0l0,0
	c-4.18,0-8.359,1.567-10.971,4.702L52.183,259.135c-1.567,1.567-3.135,3.657-3.657,5.747L0.983,398.106
	c-2.09,5.747-0.522,12.016,3.657,16.196c3.135,3.135,6.792,4.702,10.971,4.702c1.567,0,3.657-0.522,5.224-1.045l133.225-47.543
	c2.09-0.522,4.18-2.09,5.747-3.657l254.433-253.91c3.135-3.135,4.702-6.792,4.702-10.971
	C418.942,97.698,417.375,93.518,414.24,90.906z M66.289,308.767l11.494,25.078c1.567,3.135,4.18,6.269,7.837,7.837l25.078,11.494
	l-68.963,24.555L66.289,308.767z M147.269,335.412l-43.363-20.376L83.53,271.673L259.073,96.131l63.739,63.739L147.269,335.412z
	 M344.755,137.927l-63.739-63.739l36.049-36.049l64.261,64.261L344.755,137.927z"/>
<g>
</g>
<g>
</g>
<g>
</g>
<g>
</g>
<g>
</g>
<g>
</g>
<g>
</g>
<g>
</g>
<g>
</g>
<g>
</g>
<g>
</g>
<g>
</g>
<g>
</g>
<g>
</g>
<g>
</g>
</svg>
