<?xml version="1.0" encoding="iso-8859-1"?>
<!-- Generator: Adobe Illustrator 19.0.0, SVG Export Plug-In . SVG Version: 6.00 Build 0)  -->
<svg version="1.1" id="Capa_1" xmlns="http://www.w3.org/2000/svg" xmlns:xlink="http://www.w3.org/1999/xlink" x="0px" y="0px"
	 viewBox="0 0 416.392 416.392" style="enable-background:new 0 0 416.392 416.392;" xml:space="preserve">
<path style="fill:#4DCFE0;" d="M415.608,13.061c0-0.522-0.522-1.045-0.522-1.567c0-0.522-0.522-1.045-0.522-1.567
	c0-0.522-0.522-1.045-1.045-1.567c0-0.522-0.522-0.522-0.522-1.045c-1.045-1.567-2.612-3.135-4.18-4.18
	c-0.522,0-0.522-0.522-1.045-0.522c-0.522-0.522-1.045-0.522-1.567-1.045c-0.522,0-1.045-0.522-1.567-0.522
	c-0.522,0-1.045-0.522-1.567-0.522c-1.045,0-2.09-0.522-3.135-0.522H287.086c-8.882,0-15.673,6.792-15.673,15.673
	s6.792,15.673,15.673,15.673h75.755L165.878,228.833c-6.269,6.269-6.269,16.196,0,21.943c3.135,3.135,7.314,4.702,10.971,4.702
	c3.657,0,7.837-1.567,10.971-4.702L384.784,53.812v75.755c0,8.882,6.792,15.673,15.673,15.673s15.673-6.792,15.673-15.673V16.196
	C416.131,15.151,416.131,14.106,415.608,13.061z"/>
<path style="fill:#1185E0;" d="M347.167,416.392H15.935c-8.882,0-15.673-6.792-15.673-15.673V69.486
	c0-8.882,6.792-15.673,15.673-15.673h189.649c8.882,0,15.673,6.792,15.673,15.673s-6.792,15.673-15.673,15.673H31.608v299.886
	h299.886V211.069c0-8.882,6.792-15.673,15.673-15.673s15.673,6.792,15.673,15.673v189.649
	C362.841,409.6,356.049,416.392,347.167,416.392z"/>
<g>
</g>
<g>
</g>
<g>
</g>
<g>
</g>
<g>
</g>
<g>
</g>
<g>
</g>
<g>
</g>
<g>
</g>
<g>
</g>
<g>
</g>
<g>
</g>
<g>
</g>
<g>
</g>
<g>
</g>
</svg>
