<?xml version="1.0" encoding="iso-8859-1"?>
<!-- Generator: Adobe Illustrator 19.0.0, SVG Export Plug-In . SVG Version: 6.00 Build 0)  -->
<svg version="1.1" id="Capa_1" xmlns="http://www.w3.org/2000/svg" xmlns:xlink="http://www.w3.org/1999/xlink" x="0px" y="0px"
	 viewBox="0 0 432.065 432.065" style="enable-background:new 0 0 432.065 432.065;" xml:space="preserve">
<path style="fill:#1185E0;" d="M242.939,431.804h-54.335c-7.837,0-14.106-5.747-15.673-13.061l-5.224-30.302
	c-14.106-3.657-27.69-9.404-40.229-16.718L102.4,389.486c-6.269,4.18-14.629,3.657-19.853-1.567l-38.661-38.661
	c-5.224-5.224-6.269-14.106-1.567-19.853l17.763-25.078c-7.314-13.061-12.539-26.645-16.718-40.229l-30.302-5.224
	C5.747,257.829,0,251.037,0,243.2v-54.335c0-7.837,5.747-14.106,13.061-15.673l30.302-5.224c3.657-14.106,9.404-27.69,16.718-40.229
	l-17.763-25.078c-4.18-6.269-3.657-14.629,1.567-19.853l38.661-38.661c5.224-5.224,14.106-6.269,19.853-1.567l25.078,17.763
	c13.061-7.314,26.645-12.539,40.229-16.718l5.224-30.302c1.045-7.314,7.837-13.061,15.673-13.061h54.335
	c7.837,0,14.106,5.747,15.673,13.061l5.224,30.302c14.106,3.657,27.69,9.404,40.229,16.718l25.078-17.763
	c6.269-4.702,14.629-3.657,20.376,1.567l38.661,38.661c5.224,5.224,6.269,14.106,1.567,19.853l-17.763,25.078
	c7.314,13.061,12.539,26.645,16.718,40.229l30.302,5.224c7.314,1.045,13.061,7.837,13.061,15.673V243.2
	c0,7.837-5.747,14.106-13.061,15.673l-30.302,5.224c-3.657,14.106-9.404,27.69-16.718,40.229l18.286,25.6
	c4.18,6.269,3.657,14.629-1.567,20.376l-39.706,37.616c-5.224,5.224-14.106,6.269-19.853,1.567l-25.078-17.241
	c-13.061,7.314-26.645,12.539-40.229,16.718l-5.224,30.302C257.045,426.057,250.776,431.804,242.939,431.804z M201.665,400.457
	h27.69l4.702-27.167c1.045-6.269,5.747-11.494,12.016-12.539c17.241-3.657,33.959-10.449,49.633-20.376
	c5.224-3.135,12.016-3.135,17.241,0.522l22.465,15.673l19.853-19.853l-16.196-22.988c-3.657-5.225-3.657-12.016-0.522-17.763
	c9.404-14.629,16.718-31.869,20.375-49.633c1.567-6.269,6.269-10.971,12.539-12.016l27.69-4.702v-27.69l-27.167-4.702
	c-6.269-1.045-11.494-5.747-12.539-12.016c-3.657-17.241-10.449-33.959-20.376-49.633c-3.135-5.224-3.135-12.016,0.522-17.241
	l15.673-22.465l-19.853-19.853l-22.465,16.196c-5.224,3.657-12.016,4.18-17.763,0.522c-14.629-9.404-31.869-16.718-49.633-20.376
	c-6.269-1.567-10.971-6.269-12.016-12.539l-4.702-27.167h-27.69l-3.657,26.122c-1.045,6.269-5.747,11.494-12.016,12.539
	c-17.241,3.657-33.959,10.449-49.633,20.376c-5.224,3.135-12.016,3.135-17.241-0.522L96.131,75.494L75.233,95.347l15.673,22.465
	c3.657,5.224,3.657,12.016,0.522,17.763c-9.404,14.629-16.718,31.869-20.376,49.633c-1.567,6.269-6.269,10.971-12.539,12.016
	l-27.167,4.702v27.69l27.167,4.702c6.269,1.045,11.494,5.747,12.539,12.016c3.657,17.241,10.449,33.959,20.376,49.633
	c3.135,5.224,3.135,12.016-0.522,17.241l-15.673,22.465l19.853,19.853l22.465-15.673c5.224-3.657,12.016-3.657,17.763-0.522
	c14.629,9.404,31.869,16.718,49.633,20.376c6.269,1.567,10.971,6.269,12.016,12.539L201.665,400.457z"/>
<path style="fill:#4DCFE0;" d="M215.771,301.714c-47.543,0-86.204-38.661-86.204-86.204s38.661-86.204,86.204-86.204
	s86.204,38.661,86.204,86.204S263.314,301.714,215.771,301.714z M215.771,160.653c-30.302,0-54.857,24.555-54.857,54.857
	s24.555,54.857,54.857,54.857s54.857-24.555,54.857-54.857S246.073,160.653,215.771,160.653z"/>
<g>
</g>
<g>
</g>
<g>
</g>
<g>
</g>
<g>
</g>
<g>
</g>
<g>
</g>
<g>
</g>
<g>
</g>
<g>
</g>
<g>
</g>
<g>
</g>
<g>
</g>
<g>
</g>
<g>
</g>
</svg>
