<?xml version="1.0" encoding="iso-8859-1"?>
<!-- Generator: Adobe Illustrator 19.0.0, SVG Export Plug-In . SVG Version: 6.00 Build 0)  -->
<svg version="1.1" id="Capa_1" xmlns="http://www.w3.org/2000/svg" xmlns:xlink="http://www.w3.org/1999/xlink" x="0px" y="0px"
	 viewBox="0 0 395.494 395.494" style="enable-background:new 0 0 395.494 395.494;" xml:space="preserve">
<path style="fill:#4DCFE0;" d="M271.151,142.89h-98.22c-8.882,0-15.673-6.792-15.673-15.673s6.792-15.673,15.673-15.673h98.22
	c8.882,0,15.673,6.792,15.673,15.673S280.033,142.89,271.151,142.89z"/>
<path style="fill:#4DCFE0;" d="M308.767,218.645H172.931c-8.882,0-15.673-6.792-15.673-15.673s6.792-15.673,15.673-15.673h135.837
	c8.882,0,15.673,6.792,15.673,15.673S317.649,218.645,308.767,218.645z"/>
<path style="fill:#1185E0;" d="M379.82,13.322H102.4c-8.882,0-15.673,6.792-15.673,15.673v147.853h-27.69
	C26.645,176.849,0,203.494,0,235.886v87.249c0,32.392,26.645,59.037,59.037,59.037c2.612,0,5.224,0,7.837-0.522h258.612
	c38.661,0,70.008-31.347,70.008-70.008V28.996C395.494,20.114,388.702,13.322,379.82,13.322z M86.727,323.135
	c0,13.584-9.404,24.555-22.465,27.167h-5.224v0.522c-15.151,0-27.69-12.539-27.69-27.69v-87.249c0-15.151,12.539-27.69,27.69-27.69
	h27.69V323.135z M364.147,311.641c0,20.898-17.763,38.661-38.661,38.661H111.282c4.18-8.359,6.792-17.241,6.792-27.167V44.669
	h246.073L364.147,311.641L364.147,311.641z"/>
<path style="fill:#4DCFE0;" d="M271.151,289.698h-98.22c-8.882,0-15.673-6.792-15.673-15.673s6.792-15.673,15.673-15.673h98.22
	c8.882,0,15.673,6.792,15.673,15.673S280.033,289.698,271.151,289.698z"/>
<g>
</g>
<g>
</g>
<g>
</g>
<g>
</g>
<g>
</g>
<g>
</g>
<g>
</g>
<g>
</g>
<g>
</g>
<g>
</g>
<g>
</g>
<g>
</g>
<g>
</g>
<g>
</g>
<g>
</g>
</svg>
