<?xml version="1.0" encoding="iso-8859-1"?>
<!-- Generator: Adobe Illustrator 19.0.0, SVG Export Plug-In . SVG Version: 6.00 Build 0)  -->
<svg version="1.1" id="Capa_1" xmlns="http://www.w3.org/2000/svg" xmlns:xlink="http://www.w3.org/1999/xlink" x="0px" y="0px"
	 viewBox="0 0 421.094 421.094" style="enable-background:new 0 0 421.094 421.094;" xml:space="preserve">
<path style="fill:#4DCFE0;" d="M389.747,82.547c0-5.747-2.612-10.449-7.314-13.061L318.171,4.702
	c-6.269-6.269-16.196-6.269-21.943,0c-6.269,6.269-6.269,16.196,0,21.943l39.706,40.229H47.543c-8.882,0-15.673,6.792-15.673,15.673
	v121.208c0,8.882,6.792,15.673,15.673,15.673s15.673-6.792,15.673-15.673V98.22h272.718l-39.706,39.706
	c-6.269,6.269-6.269,16.196,0,21.943c3.135,3.135,7.314,4.702,10.971,4.702c3.657,0,7.837-1.567,10.971-4.702l64.261-64.261
	C387.135,92.996,389.747,88.294,389.747,82.547z"/>
<path style="fill:#1185E0;" d="M373.551,195.396c-8.882,0-15.673,6.792-15.673,15.673v110.759H85.159l39.706-39.706
	c6.269-6.269,6.269-16.196,0-21.943c-6.269-6.269-16.196-6.269-21.943,0l-66.351,66.351c-0.522,0.522-1.567,1.567-2.09,2.612
	c0,0.522-0.522,0.522-0.522,1.045c-0.522,0.522-0.522,1.045-1.045,1.567c0,0.522-0.522,1.045-0.522,1.567
	c0,0.522-0.522,1.045-0.522,1.567c0,1.045-0.522,2.09-0.522,3.135l0,0v0.522c0,1.045,0,1.567,0.522,2.612
	c0,0.522,0,1.045,0.522,1.567c0,0.522,0.522,1.045,0.522,1.567c0,0.522,0.522,1.045,0.522,1.567c0,0.522,0.522,1.045,0.522,1.045
	c0.522,0.522,1.045,1.045,1.567,2.09c0,0,0,0.522,0.522,0.522l66.351,66.873c3.135,3.135,7.314,4.702,10.971,4.702
	c4.18,0,7.837-1.567,10.971-4.702c6.269-6.269,6.269-16.196,0-21.943l-39.184-41.274h288.392c8.882,0,15.673-6.792,15.673-15.673
	V211.069C389.225,202.188,382.433,195.396,373.551,195.396z"/>
<g>
</g>
<g>
</g>
<g>
</g>
<g>
</g>
<g>
</g>
<g>
</g>
<g>
</g>
<g>
</g>
<g>
</g>
<g>
</g>
<g>
</g>
<g>
</g>
<g>
</g>
<g>
</g>
<g>
</g>
</svg>
