<?xml version="1.0" encoding="iso-8859-1"?>
<!-- Generator: Adobe Illustrator 19.0.0, SVG Export Plug-In . SVG Version: 6.00 Build 0)  -->
<svg version="1.1" id="Capa_1" xmlns="http://www.w3.org/2000/svg" xmlns:xlink="http://www.w3.org/1999/xlink" x="0px" y="0px"
	 viewBox="0 0 445.127 445.127" style="enable-background:new 0 0 445.127 445.127;" xml:space="preserve">
<path style="fill:#4DCFE0;" d="M277.42,41.796c-15.151,0-29.78,5.224-41.273,13.584C228.31,22.465,200.098,0,163.527,0
	c-41.273,0-74.71,35.527-74.71,79.412c0,36.049,22.465,67.918,54.857,77.322l8.882-30.302c-18.808-5.224-31.869-25.078-31.869-47.02
	c0-26.645,19.331-48.065,43.363-48.065c25.6,0,43.363,17.241,43.363,41.796v356.31h31.347V110.237
	c1.045-20.376,19.331-37.094,39.184-37.094c20.898,0,38.139,17.241,38.139,38.139c0,7.837-2.09,15.151-6.792,22.465l26.122,17.241
	c7.837-12.016,12.016-25.6,12.016-39.184C346.906,73.143,315.559,41.796,277.42,41.796z"/>
<path style="fill:#1185E0;" d="M408.555,125.91H36.571c-8.882,0-15.673,6.792-15.673,15.673v83.069
	c0,8.882,6.792,15.673,15.673,15.673h13.061v189.127c0,8.882,6.792,15.673,15.673,15.673H379.82c8.882,0,15.673-6.792,15.673-15.673
	V240.327h13.061c8.882,0,15.673-6.792,15.673-15.673v-83.069C424.229,132.702,417.437,125.91,408.555,125.91z M52.245,157.257
	h340.637v51.722H52.245V157.257z M364.147,413.78H80.98V240.327h283.167V413.78z"/>
<g>
</g>
<g>
</g>
<g>
</g>
<g>
</g>
<g>
</g>
<g>
</g>
<g>
</g>
<g>
</g>
<g>
</g>
<g>
</g>
<g>
</g>
<g>
</g>
<g>
</g>
<g>
</g>
<g>
</g>
</svg>
