<?xml version="1.0" encoding="iso-8859-1"?>
<!-- Generator: Adobe Illustrator 19.0.0, SVG Export Plug-In . SVG Version: 6.00 Build 0)  -->
<svg version="1.1" id="Capa_1" xmlns="http://www.w3.org/2000/svg" xmlns:xlink="http://www.w3.org/1999/xlink" x="0px" y="0px"
	 viewBox="0 0 457.143 457.143" style="enable-background:new 0 0 457.143 457.143;" xml:space="preserve">
<rect x="213.159" y="112.065" style="fill:#4DCFE0;" width="31.347" height="320.784"/>
<path style="fill:#1185E0;" d="M441.469,96.392H15.673C6.792,96.392,0,103.184,0,112.065v102.4c0,8.882,6.792,15.673,15.673,15.673
	h13.584v202.71c0,8.882,6.792,15.673,15.673,15.673h367.282c8.882,0,15.673-6.792,15.673-15.673v-202.71h13.584
	c8.882,0,15.673-6.792,15.673-15.673v-102.4C457.143,103.184,450.351,96.392,441.469,96.392z M31.347,127.739h394.449v71.053H31.347
	V127.739z M396.539,417.175H60.604V230.139h335.935L396.539,417.175L396.539,417.175z"/>
<path style="fill:#4DCFE0;" d="M316.082,8.62c-44.931,0-72.098,33.959-87.249,62.171C213.682,42.58,186.514,8.62,141.584,8.62
	c-32.914,0-59.559,26.645-59.559,59.559s26.645,59.559,59.037,59.559h87.771h87.771c32.392,0,59.037-26.645,59.037-59.559
	S348.996,8.62,316.082,8.62z M141.061,96.392c-15.673,0-27.69-12.539-27.69-28.212c0-15.151,13.061-28.212,28.212-28.212
	c34.482,0,54.857,33.959,64.784,56.424H141.061z M316.604,96.392h-65.306c9.927-22.465,30.302-56.424,64.784-56.424
	c15.151,0,28.212,13.061,28.212,28.212C344.294,83.853,332.278,96.392,316.604,96.392z"/>
<g>
</g>
<g>
</g>
<g>
</g>
<g>
</g>
<g>
</g>
<g>
</g>
<g>
</g>
<g>
</g>
<g>
</g>
<g>
</g>
<g>
</g>
<g>
</g>
<g>
</g>
<g>
</g>
<g>
</g>
</svg>
