<?xml version="1.0" encoding="iso-8859-1"?>
<!-- Generator: Adobe Illustrator 19.0.0, SVG Export Plug-In . SVG Version: 6.00 Build 0)  -->
<svg version="1.1" id="Capa_1" xmlns="http://www.w3.org/2000/svg" xmlns:xlink="http://www.w3.org/1999/xlink" x="0px" y="0px"
	 viewBox="0 0 456.098 456.098" style="enable-background:new 0 0 456.098 456.098;" xml:space="preserve">
<g>
	<path style="fill:#4DCFE0;" d="M309.029,0c-41.273,0-66.873,31.347-80.98,58.514C213.943,31.347,188.343,0,147.069,0
		c-31.347,0-56.424,26.122-56.424,57.992c0,32.392,25.078,59.037,56.424,59.037V85.682c-13.584,0-25.078-12.539-25.078-27.69
		c0-14.629,11.494-26.645,25.078-26.645c47.02,0,65.829,72.62,65.829,73.143l15.151-3.657l15.151,3.657
		c0-0.522,18.808-73.143,65.829-73.143c13.584,0,25.078,12.016,25.078,26.645c0,15.151-11.494,27.69-25.078,27.69v31.347
		c31.347,0,56.424-26.645,56.424-59.037C365.453,26.122,340.375,0,309.029,0z"/>
	<rect x="243.722" y="101.355" style="fill:#4DCFE0;" width="31.347" height="339.069"/>
	<rect x="181.029" y="101.355" style="fill:#4DCFE0;" width="31.347" height="339.069"/>
</g>
<path style="fill:#1185E0;" d="M430.237,85.682H25.861c-8.882,0-15.673,6.792-15.673,15.673v99.788
	c0,8.882,6.792,15.673,15.673,15.673h10.971v223.608c0,8.882,6.792,15.673,15.673,15.673h351.086
	c8.882,0,15.673-6.792,15.673-15.673V216.816h10.971c8.882,0,15.673-6.792,15.673-15.673v-99.788
	C445.91,92.473,439.118,85.682,430.237,85.682z M41.535,117.029h373.029v68.441H41.535V117.029z M387.918,424.751H68.18V216.816
	h319.739V424.751z"/>
<g>
</g>
<g>
</g>
<g>
</g>
<g>
</g>
<g>
</g>
<g>
</g>
<g>
</g>
<g>
</g>
<g>
</g>
<g>
</g>
<g>
</g>
<g>
</g>
<g>
</g>
<g>
</g>
<g>
</g>
</svg>
