<?xml version="1.0" encoding="iso-8859-1"?>
<!-- Generator: Adobe Illustrator 19.0.0, SVG Export Plug-In . SVG Version: 6.00 Build 0)  -->
<svg version="1.1" id="Capa_1" xmlns="http://www.w3.org/2000/svg" xmlns:xlink="http://www.w3.org/1999/xlink" x="0px" y="0px"
	 viewBox="0 0 458.71 458.71" style="enable-background:new 0 0 458.71 458.71;" xml:space="preserve">
<g>
	
		<rect x="172.891" y="329.659" transform="matrix(-0.9625 -0.2712 0.2712 -0.9625 264.9995 811.3978)" style="fill:#4DCFE0;" width="31.346" height="115.459"/>
	<path style="fill:#4DCFE0;" d="M172.931,458.71c-1.567,0-3.135,0-4.702-1.045c-5.747-2.09-9.404-6.792-10.449-12.539
		l-23.51-144.718l30.824-5.224l18.808,114.939l59.037-57.469l21.943,22.465l-80.98,78.89
		C180.767,457.143,177.11,458.71,172.931,458.71z"/>
</g>
<path style="fill:#1185E0;" d="M458.188,12.539c-0.522-2.612-1.567-5.747-4.18-7.837c-0.522-0.522-0.522-0.522-1.045-1.045
	C450.351,1.045,446.694,0,443.037,0l0,0l0,0c-0.522,0-1.045,0-2.09,0l0,0c-2.09,0-4.18,1.045-5.747,2.09L8.359,228.833
	C3.135,231.445,0,237.192,0,243.461c0.522,6.269,4.18,11.494,9.404,13.584l133.747,55.902c5.747,2.612,12.539,1.045,16.718-3.135
	l150.465-144.718L191.739,322.351c-2.612,3.657-3.657,7.837-3.135,12.016c0.522,4.18,3.135,7.837,6.792,10.449l155.69,105.535
	c2.612,1.567,5.747,2.612,8.882,2.612c2.09,0,4.18-0.522,5.747-1.045c4.702-2.09,8.359-6.269,9.404-11.494l83.069-421.616
	c0-1.045,0.522-2.09,0.522-3.135C458.71,14.629,458.71,13.584,458.188,12.539z M145.763,280.033l-93.518-39.184L351.608,82.024
	L145.763,280.033z M348.996,411.167l-122.253-83.069L414.302,79.412L348.996,411.167z"/>
<g>
</g>
<g>
</g>
<g>
</g>
<g>
</g>
<g>
</g>
<g>
</g>
<g>
</g>
<g>
</g>
<g>
</g>
<g>
</g>
<g>
</g>
<g>
</g>
<g>
</g>
<g>
</g>
<g>
</g>
</svg>
