<?xml version="1.0" encoding="iso-8859-1"?>
<!-- Generator: Adobe Illustrator 19.0.0, SVG Export Plug-In . SVG Version: 6.00 Build 0)  -->
<svg version="1.1" id="Capa_1" xmlns="http://www.w3.org/2000/svg" xmlns:xlink="http://www.w3.org/1999/xlink" x="0px" y="0px"
	 viewBox="0 0 446.694 446.694" style="enable-background:new 0 0 446.694 446.694;" xml:space="preserve">
<path style="fill:#4DCFE0;" d="M333.061,177.633h-31.347v-66.873c0-43.886-35.004-79.412-78.367-79.412
	s-78.367,35.527-78.367,79.412v66.351h-31.347v-66.351C113.633,49.633,162.743,0,223.347,0s109.714,49.633,109.714,110.759V177.633z
	"/>
<path style="fill:#1185E0;" d="M223.347,446.694c-1.567,0-3.135,0-4.702-0.522L77.584,404.376
	c-6.792-2.09-10.971-7.837-10.971-15.151v-208.98c0-8.882,6.792-15.673,15.673-15.673h282.122c8.882,0,15.673,6.792,15.673,15.673
	v208.98c0,6.792-4.702,13.061-10.971,15.151l-141.061,41.796C226.482,446.694,224.914,446.694,223.347,446.694z M97.959,377.731
	l125.388,37.094l125.388-37.094V195.918H97.959V377.731z"/>
<path style="fill:#4DCFE0;" d="M223.347,342.204c-8.882,0-15.673-6.792-15.673-15.673v-41.796c0-8.882,6.792-15.673,15.673-15.673
	s15.673,6.792,15.673,15.673v41.796C239.02,335.412,232.229,342.204,223.347,342.204z"/>
<g>
</g>
<g>
</g>
<g>
</g>
<g>
</g>
<g>
</g>
<g>
</g>
<g>
</g>
<g>
</g>
<g>
</g>
<g>
</g>
<g>
</g>
<g>
</g>
<g>
</g>
<g>
</g>
<g>
</g>
</svg>
