<?xml version="1.0" encoding="iso-8859-1"?>
<!-- Generator: Adobe Illustrator 19.0.0, SVG Export Plug-In . SVG Version: 6.00 Build 0)  -->
<svg version="1.1" id="Capa_1" xmlns="http://www.w3.org/2000/svg" xmlns:xlink="http://www.w3.org/1999/xlink" x="0px" y="0px"
	 viewBox="0 0 425.796 425.796" style="enable-background:new 0 0 425.796 425.796;" xml:space="preserve">
<path style="fill:#1185E0;" d="M392.359,341.159l-56.424-56.424l0,0l0,0L212.637,161.437c-6.269-6.269-16.196-6.269-21.943,0
	c-6.269,6.269-6.269,16.196,0,21.943L303.02,295.706l-43.886,43.886c-6.269,6.269-6.269,16.196,0,21.943
	c3.135,3.135,7.314,4.702,10.971,4.702s7.837-1.567,10.971-4.702l43.886-43.886l33.959,33.959l-48.065,47.543
	c-6.269,6.269-6.269,16.196,0,21.943c3.135,3.135,7.314,4.702,10.971,4.702c4.18,0,7.837-1.567,10.971-4.702l59.037-58.514
	c3.135-3.135,4.702-6.792,4.702-10.971S395.494,343.771,392.359,341.159z"/>
<path style="fill:#4DCFE0;" d="M136.359,212.637c-27.167,0-54.857-10.449-75.755-31.347l0,0
	c-20.376-20.376-31.347-47.02-31.347-75.233S40.229,51.2,60.082,30.824C79.935,10.971,106.58,0,134.792,0c0,0,0,0,0.522,0
	c28.212,0,54.857,10.971,75.233,31.347s31.347,47.02,31.347,75.233s-10.971,54.857-30.824,75.233
	C190.694,202.188,163.527,212.637,136.359,212.637z M83.069,159.347c29.257,29.257,76.8,29.257,106.057,0.522
	c14.106-14.106,21.943-32.914,21.943-52.767s-7.837-38.661-21.943-53.29c-14.106-14.106-32.914-21.943-53.29-21.943l0,0
	c-19.853,0-38.661,7.837-52.767,21.943S61.127,86.727,61.127,106.58C61.127,125.91,68.963,145.241,83.069,159.347L83.069,159.347z"
	/>
<g>
</g>
<g>
</g>
<g>
</g>
<g>
</g>
<g>
</g>
<g>
</g>
<g>
</g>
<g>
</g>
<g>
</g>
<g>
</g>
<g>
</g>
<g>
</g>
<g>
</g>
<g>
</g>
<g>
</g>
</svg>
