<?xml version="1.0" encoding="iso-8859-1"?>
<!-- Generator: Adobe Illustrator 19.0.0, SVG Export Plug-In . SVG Version: 6.00 Build 0)  -->
<svg version="1.1" id="Capa_1" xmlns="http://www.w3.org/2000/svg" xmlns:xlink="http://www.w3.org/1999/xlink" x="0px" y="0px"
	 viewBox="0 0 428.408 428.408" style="enable-background:new 0 0 428.408 428.408;" xml:space="preserve">
<path style="fill:#4DCFE0;" d="M227.265,194.351h-88.816c-8.882,0-15.673-6.792-15.673-15.673V95.086h31.347v67.918h57.469V95.086
	h31.347v83.592C242.939,187.559,236.147,194.351,227.265,194.351z"/>
<path style="fill:#1185E0;" d="M412.735,16.718H78.367c-4.18,0-8.359,1.567-10.971,4.702L4.702,84.114
	C1.567,86.727,0,90.906,0,95.086v300.931c0,8.882,6.792,15.673,15.673,15.673h334.367c4.18,0,8.359-1.567,10.971-4.702
	l62.694-62.694c3.135-3.135,4.702-6.792,4.702-10.971V32.392C428.408,23.51,421.616,16.718,412.735,16.718z M84.637,48.065h289.959
	l-31.347,31.347H53.29L84.637,48.065z M31.347,380.343V110.759h303.02v269.584H31.347z M365.714,358.4V101.355l31.347-31.347
	v256.522L365.714,358.4z"/>
<g>
</g>
<g>
</g>
<g>
</g>
<g>
</g>
<g>
</g>
<g>
</g>
<g>
</g>
<g>
</g>
<g>
</g>
<g>
</g>
<g>
</g>
<g>
</g>
<g>
</g>
<g>
</g>
<g>
</g>
</svg>
