<?xml version="1.0" encoding="iso-8859-1"?>
<!-- Generator: Adobe Illustrator 19.0.0, SVG Export Plug-In . SVG Version: 6.00 Build 0)  -->
<svg version="1.1" id="Capa_1" xmlns="http://www.w3.org/2000/svg" xmlns:xlink="http://www.w3.org/1999/xlink" x="0px" y="0px"
	 viewBox="0 0 494.237 494.237" style="enable-background:new 0 0 494.237 494.237;" xml:space="preserve">
<path style="fill:#1185E0;" d="M472.816,294.139h-70.531v-27.69h-30.302v-30.302H262.792v-30.824h32.914
	c8.882,0,15.673-6.792,15.673-15.673s-6.792-15.673-15.673-15.673h-32.914v-17.763h80.457c8.882,0,15.673-6.792,15.673-15.673
	V15.673C358.922,6.792,352.131,0,343.249,0H150.988c-8.882,0-15.673,6.792-15.673,15.673v124.865
	c0,8.882,6.792,15.673,15.673,15.673h80.457v17.763h-32.914c-8.882,0-15.673,6.792-15.673,15.673s6.792,15.673,15.673,15.673h32.914
	v30.824H122.253v30.302H91.951v27.69H21.42c-8.882,0-15.673,6.792-15.673,15.673v120.163c0,8.882,6.792,15.673,15.673,15.673h70.531
	v17.241H68.963c-8.882,0-15.673,6.792-15.673,15.673c0,8.882,6.792,15.673,15.673,15.673h77.845c8.882,0,15.673-6.792,15.673-15.673
	c0-8.882-6.792-15.673-15.673-15.673h-23.51v-17.241h71.053c8.882,0,15.673-6.792,15.673-15.673V309.812
	c0-8.882-6.792-15.673-15.673-15.673h-71.053v-26.645H232.49v-29.78h29.257v29.78h109.192v26.645h-71.053
	c-8.882,0-15.673,6.792-15.673,15.673v120.163c0,8.882,6.792,15.673,15.673,15.673h71.053v17.241h-23.51
	c-8.882,0-15.673,6.792-15.673,15.673c0,8.882,6.792,15.673,15.673,15.673h77.845c8.882,0,15.673-6.792,15.673-15.673
	c0-8.882-6.792-15.673-15.673-15.673h-22.988v-17.241h70.531c8.882,0,15.673-6.792,15.673-15.673V309.812
	C488.49,300.931,481.698,294.139,472.816,294.139z M178.678,325.486v88.816H37.094v-88.816H178.678z M166.661,124.865V31.347
	h160.914v93.518C327.576,124.865,166.661,124.865,166.661,124.865z M457.143,414.302H315.559v-88.816h141.584V414.302z"/>
<g>
	<path style="fill:#4DCFE0;" d="M247.118,282.122c-16.718,0-30.302-13.584-30.302-30.302s13.584-30.302,30.302-30.302
		s30.302,13.584,30.302,30.302S263.837,282.122,247.118,282.122z"/>
	<path style="fill:#4DCFE0;" d="M107.624,282.122c-16.718,0-30.302-13.584-30.302-30.302s13.584-30.302,30.302-30.302
		s30.302,13.584,30.302,30.302S124.343,282.122,107.624,282.122z"/>
	<path style="fill:#4DCFE0;" d="M386.612,282.122c-16.718,0-30.302-13.584-30.302-30.302s13.584-30.302,30.302-30.302
		s30.302,13.584,30.302,30.302S403.331,282.122,386.612,282.122z"/>
</g>
<g>
</g>
<g>
</g>
<g>
</g>
<g>
</g>
<g>
</g>
<g>
</g>
<g>
</g>
<g>
</g>
<g>
</g>
<g>
</g>
<g>
</g>
<g>
</g>
<g>
</g>
<g>
</g>
<g>
</g>
</svg>
