<?xml version="1.0" encoding="iso-8859-1"?>
<!-- Generator: Adobe Illustrator 19.0.0, SVG Export Plug-In . SVG Version: 6.00 Build 0)  -->
<svg version="1.1" id="Capa_1" xmlns="http://www.w3.org/2000/svg" xmlns:xlink="http://www.w3.org/1999/xlink" x="0px" y="0px"
	 viewBox="0 0 429.453 429.453" style="enable-background:new 0 0 429.453 429.453;" xml:space="preserve">
<path style="fill:#4DCFE0;" d="M214.727,298.318c-41.273,0-75.233-33.959-75.233-75.233V75.233C139.494,33.959,173.453,0,214.727,0
	s75.233,33.959,75.233,75.233v148.375C289.959,264.882,256,298.318,214.727,298.318z M214.727,31.347
	c-24.033,0-43.886,19.853-43.886,43.886v147.853c0,24.033,19.853,43.886,43.886,43.886s43.886-19.331,43.886-43.363V75.233
	C258.612,51.2,238.759,31.347,214.727,31.347z"/>
<path style="fill:#1185E0;" d="M333.322,196.963c-8.882,0-15.673,6.792-15.673,15.673v12.539
	c0,56.947-45.976,102.922-102.922,102.922s-102.922-45.975-102.922-102.922v-12.539c0-8.882-6.792-15.673-15.673-15.673
	s-15.673,6.792-15.673,15.673v12.539c0,68.963,51.722,125.388,118.596,133.224v39.706h-25.6c-8.882,0-15.673,6.792-15.673,15.673
	s6.792,15.673,15.673,15.673H256c8.882,0,15.673-6.792,15.673-15.673s-6.792-15.673-15.673-15.673h-25.6V358.4
	c66.873-7.837,118.596-64.261,118.596-133.224v-12.539C348.996,203.755,342.204,196.963,333.322,196.963z"/>
<g>
</g>
<g>
</g>
<g>
</g>
<g>
</g>
<g>
</g>
<g>
</g>
<g>
</g>
<g>
</g>
<g>
</g>
<g>
</g>
<g>
</g>
<g>
</g>
<g>
</g>
<g>
</g>
<g>
</g>
</svg>
