<?xml version="1.0" encoding="iso-8859-1"?>
<!-- Generator: Adobe Illustrator 19.0.0, SVG Export Plug-In . SVG Version: 6.00 Build 0)  -->
<svg version="1.1" id="Capa_1" xmlns="http://www.w3.org/2000/svg" xmlns:xlink="http://www.w3.org/1999/xlink" x="0px" y="0px"
	 viewBox="0 0 452.449 452.449" style="enable-background:new 0 0 452.449 452.449;" xml:space="preserve">
<rect x="202.189" y="76.276" transform="matrix(-0.7071 -0.7071 0.7071 -0.7071 285.1003 363.6396)" style="fill:#1185E0;" width="31.347" height="92.995"/>
<path style="fill:#4DCFE0;" d="M15.673,452.445c-4.18,0-7.837-1.567-10.971-4.702c-6.269-6.269-6.269-16.196,0-21.943
	l142.106-142.106c6.269-6.269,16.196-6.269,21.943,0c6.269,6.269,6.269,16.196,0,21.943L26.645,447.743
	C23.51,450.878,19.853,452.445,15.673,452.445z"/>
<path style="fill:#1185E0;" d="M448.261,164.576L287.869,4.706c-3.135-3.135-6.792-4.702-10.971-4.702
	c-4.18,0-8.359,1.567-10.971,4.702l-49.633,49.633c-6.269,6.269-6.269,16.196,0,21.943l124.343,124.343l-36.049,36.571
	c-7.314-19.853-18.808-38.661-35.004-54.857c-59.037-59.037-155.167-59.037-213.682,0l-5.224,5.224
	c-6.269,6.269-6.269,16.196,0,21.943l191.739,191.739c3.135,3.135,7.314,4.702,10.971,4.702c3.657,0,7.837-1.567,10.971-4.702
	l5.224-5.224c33.437-33.437,48.065-79.412,43.363-123.298l49.633-49.633l13.061,13.061c3.135,3.135,6.792,4.702,10.971,4.702
	s8.359-1.567,10.971-4.702l49.633-49.633C454.008,180.771,454.008,170.845,448.261,164.576z M253.388,368.331L84.114,199.057
	c47.02-41.273,118.596-39.184,163.527,5.747S294.139,321.31,253.388,368.331z M387.135,203.759L249.208,65.833l27.69-27.69
	l137.927,137.927L387.135,203.759z"/>
<g>
</g>
<g>
</g>
<g>
</g>
<g>
</g>
<g>
</g>
<g>
</g>
<g>
</g>
<g>
</g>
<g>
</g>
<g>
</g>
<g>
</g>
<g>
</g>
<g>
</g>
<g>
</g>
<g>
</g>
</svg>
