<?xml version="1.0" encoding="iso-8859-1"?>
<!-- Generator: Adobe Illustrator 19.0.0, SVG Export Plug-In . SVG Version: 6.00 Build 0)  -->
<svg version="1.1" id="Capa_1" xmlns="http://www.w3.org/2000/svg" xmlns:xlink="http://www.w3.org/1999/xlink" x="0px" y="0px"
	 viewBox="0 0 462.89 462.89" style="enable-background:new 0 0 462.89 462.89;" xml:space="preserve">
<g>
	<path style="fill:#1185E0;" d="M231.445,334.367c-49.633,0-90.384-40.751-90.384-90.384v-153.6C141.061,40.751,181.812,0,231.445,0
		s90.384,40.751,90.384,90.384v153.078C321.829,293.616,281.078,334.367,231.445,334.367z M231.445,31.347
		c-32.392,0-59.037,26.645-59.037,59.037v153.6c0,32.392,26.645,59.037,59.037,59.037s59.037-26.645,59.037-59.559V90.384
		C290.482,57.992,263.837,31.347,231.445,31.347z"/>
	<path style="fill:#1185E0;" d="M363.625,166.661c-8.882,0-15.673,6.792-15.673,15.673v61.649
		c0,64.261-52.245,116.506-116.506,116.506s-116.506-52.245-116.506-116.506v-61.649c0-8.882-6.792-15.673-15.673-15.673
		s-15.673,6.792-15.673,15.673v61.649c0,76.278,57.992,138.971,132.18,146.808v40.751h-49.11c-8.882,0-15.673,6.792-15.673,15.673
		c0,8.882,6.792,15.673,15.673,15.673h129.567c8.882,0,15.673-6.792,15.673-15.673c0-8.882-6.792-15.673-15.673-15.673h-49.11
		v-40.751c74.188-7.837,132.18-70.531,132.18-146.808v-61.649C379.298,173.453,372.506,166.661,363.625,166.661z"/>
</g>
<path style="fill:#4DCFE0;" d="M51.722,426.841c-4.18,0-7.837-1.567-10.971-4.702c-6.269-6.269-6.269-16.196,0-21.943
	L400.196,40.751c6.269-6.269,16.196-6.269,21.943,0c6.269,6.269,6.269,16.196,0,21.943L62.694,422.139
	C59.559,425.273,55.902,426.841,51.722,426.841z"/>
<g>
</g>
<g>
</g>
<g>
</g>
<g>
</g>
<g>
</g>
<g>
</g>
<g>
</g>
<g>
</g>
<g>
</g>
<g>
</g>
<g>
</g>
<g>
</g>
<g>
</g>
<g>
</g>
<g>
</g>
</svg>
