<?xml version="1.0" encoding="iso-8859-1"?>
<!-- Generator: Adobe Illustrator 19.0.0, SVG Export Plug-In . SVG Version: 6.00 Build 0)  -->
<svg version="1.1" id="Capa_1" xmlns="http://www.w3.org/2000/svg" xmlns:xlink="http://www.w3.org/1999/xlink" x="0px" y="0px"
	 viewBox="0 0 440.424 440.424" style="enable-background:new 0 0 440.424 440.424;" xml:space="preserve">
<g>
	<path style="fill:#4DCFE0;" d="M137.861,253.388c-4.18,0-7.837-1.567-10.971-4.702c-25.078-25.078-38.661-57.992-38.661-93.518
		s13.584-68.441,38.661-93.518c6.269-6.269,16.196-6.269,21.943,0c6.269,6.269,6.269,16.196,0,21.943
		c-39.184,39.184-39.184,102.922,0,142.629c6.269,6.269,6.269,16.196,0,21.943C145.698,251.82,142.041,253.388,137.861,253.388z"/>
	<path style="fill:#4DCFE0;" d="M302.955,253.388c-4.18,0-7.837-1.567-10.971-4.702c-6.269-6.269-6.269-16.196,0-21.943
		c39.184-39.184,39.184-102.922,0-142.629c-6.269-6.269-6.269-16.196,0-21.943c6.269-6.269,16.196-6.269,21.943,0
		c25.078,25.078,38.661,57.992,38.661,93.518s-13.584,68.441-38.661,93.518C310.792,251.82,307.135,253.388,302.955,253.388z"/>
	<path style="fill:#4DCFE0;" d="M80.392,311.38c-4.18,0-7.837-1.567-10.971-4.702C29.192,266.449,6.727,212.637,6.727,155.69
		S29.192,44.931,69.42,4.702c6.269-6.269,16.196-6.269,21.943,0c6.269,6.269,6.269,16.196,0,21.943
		c-34.482,34.482-53.29,80.457-53.29,129.045s18.808,94.563,53.29,129.045c6.269,6.269,6.269,16.196,0,21.943
		C88.229,309.812,84.571,311.38,80.392,311.38z"/>
	<path style="fill:#4DCFE0;" d="M360.424,311.38c-4.18,0-7.837-1.567-10.971-4.702c-6.269-6.269-6.269-16.196,0-21.943
		c71.053-71.053,71.053-186.514,0-258.09c-6.269-6.269-6.269-16.196,0-21.943c6.269-6.269,16.196-6.269,21.943,0
		c83.069,83.069,83.069,218.906,0,301.976C368.261,309.812,364.604,311.38,360.424,311.38z"/>
</g>
<path style="fill:#1185E0;" d="M341.094,419.004L254.89,201.665c14.106-10.449,22.988-27.167,22.988-45.975
	c0-31.869-25.6-57.469-57.469-57.469s-57.469,25.6-57.469,57.469c0,18.808,8.882,35.527,22.988,45.975L99.722,419.004
	c-2.612,6.269-0.522,14.106,5.224,18.286c2.612,2.09,6.269,3.135,9.404,3.135c3.135,0,6.792-1.045,9.404-3.135l97.176-73.143
	l96.131,73.143c2.612,2.09,6.269,3.135,9.404,3.135s6.792-1.045,9.404-3.135C341.616,433.11,343.706,425.273,341.094,419.004z
	 M220.408,129.567c14.629,0,26.122,11.494,26.122,26.122c0,14.629-11.494,26.122-26.122,26.122
	c-14.629,0-26.122-11.494-26.122-26.122C194.286,141.061,205.78,129.567,220.408,129.567z M220.408,213.159
	c1.567,0,3.657,0,5.224-0.522l32.914,83.592l-37.616,28.212l-38.661-29.257l32.914-82.547
	C216.751,213.159,218.841,213.159,220.408,213.159z M149.355,378.776l20.898-53.29l24.555,18.808L149.355,378.776z M247.053,344.294
	l23.51-17.763l20.376,51.2L247.053,344.294z"/>
<g>
</g>
<g>
</g>
<g>
</g>
<g>
</g>
<g>
</g>
<g>
</g>
<g>
</g>
<g>
</g>
<g>
</g>
<g>
</g>
<g>
</g>
<g>
</g>
<g>
</g>
<g>
</g>
<g>
</g>
</svg>
