<?xml version="1.0" encoding="iso-8859-1"?>
<!-- Generator: Adobe Illustrator 19.0.0, SVG Export Plug-In . SVG Version: 6.00 Build 0)  -->
<svg version="1.1" id="Capa_1" xmlns="http://www.w3.org/2000/svg" xmlns:xlink="http://www.w3.org/1999/xlink" x="0px" y="0px"
	 viewBox="0 0 429.453 429.453" style="enable-background:new 0 0 429.453 429.453;" xml:space="preserve">
<path style="fill:#1185E0;" d="M413.78,14.629H15.673C6.792,14.629,0,21.42,0,30.302v368.849c0,8.882,6.792,15.673,15.673,15.673
	H413.78c8.882,0,15.673-6.792,15.673-15.673V30.302C429.453,21.42,422.661,14.629,413.78,14.629z M398.106,45.976v64.261H31.347
	V45.976H398.106z M31.347,383.478V141.584h366.759v241.894H31.347z"/>
<g>
	<path style="fill:#4DCFE0;" d="M101.355,342.727c-3.657,0-7.837-1.567-10.449-4.18c-6.269-5.747-6.792-15.673-1.045-21.943
		l54.335-59.559l-54.335-60.082c-5.747-6.269-5.224-16.196,1.045-21.943c6.269-5.747,16.196-5.224,21.943,1.045l64.261,70.531
		c5.224,5.747,5.224,15.151,0,20.898l-64.261,70.008C109.714,341.159,105.535,342.727,101.355,342.727z"/>
	<path style="fill:#4DCFE0;" d="M331.755,341.682H189.127c-8.882,0-15.673-6.792-15.673-15.673s6.792-15.673,15.673-15.673h142.629
		c8.882,0,15.673,6.792,15.673,15.673S340.637,341.682,331.755,341.682z"/>
</g>
<g>
</g>
<g>
</g>
<g>
</g>
<g>
</g>
<g>
</g>
<g>
</g>
<g>
</g>
<g>
</g>
<g>
</g>
<g>
</g>
<g>
</g>
<g>
</g>
<g>
</g>
<g>
</g>
<g>
</g>
</svg>
